<svg xmlns="http://www.w3.org/2000/svg" xmlns:xlink="http://www.w3.org/1999/xlink" width="100%" height="100%" viewBox="0 0 374 55">
  <defs>
    <linearGradient id="linear-gradient" x1="0.897" y1="0.393" x2="0" y2="0.381" gradientUnits="objectBoundingBox">
      <stop offset="0" stop-color="#fff"/>
      <stop offset="1" stop-color="#fff"/>
    </linearGradient>
    <clipPath id="clip-path">
      <path id="Path_3506" data-name="Path 3506" d="M98.07,199.621l-1.55.417,1.55.417.417,1.549.417-1.549,1.55-.417-1.55-.417-.417-1.549Zm-9.146-5.285-1.55.417,1.55.417.417,1.55.417-1.55,1.549-.417-1.549-.417-.417-1.549Zm17.925-1.907-2.716.731,2.716.732.731,2.715.731-2.715,2.716-.732-2.716-.731-.731-2.716ZM79.9,189.048l-1.55.417,1.55.417.417,1.55.417-1.55,1.55-.417-1.55-.417-.417-1.55Zm17.877-.314-2.716.732,2.716.731.732,2.715.73-2.715,2.716-.731-2.716-.732-.73-2.716Zm17.042-.008-2.716.73,2.716.731.731,2.716.731-2.716,2.716-.731-2.716-.73-.731-2.716ZM88.61,183.61l-2.716.73,2.716.732.731,2.716.731-2.716,2.716-.732-2.716-.73-.731-2.716Zm18.493,0-2.716.73,2.716.732.731,2.716.731-2.716,2.716-.732-2.716-.73-.731-2.716Zm-27.321-5.14-1.55.417,1.55.417.417,1.55.417-1.55,1.55-.417-1.55-.417-.417-1.55Zm17.974-.314-2.716.731,2.716.731.731,2.716.731-2.716,2.716-.731-2.716-.731-.731-2.716Zm17.066,0-2.716.731,2.716.731.731,2.716.731-2.716,2.716-.731-2.716-.731-.731-2.716Zm-7.865-5.289-2.716.731,2.716.731.731,2.716.731-2.716,2.716-.731-2.716-.731-.731-2.715Zm-18.4-.091-2.716.731,2.716.731.731,2.715.731-2.715,2.716-.731-2.716-.731-.731-2.716Zm26.267-3.73-2.716.732,2.716.731.731,2.716.731-2.716,2.716-.731-2.716-.732-.731-2.716Zm-35.075-1.17-1.549.417,1.549.417.417,1.549.417-1.549,1.55-.417-1.55-.417-.417-1.549Zm18.177-.187-2.278.614,2.278.613.614,2.278.613-2.278,2.279-.613-2.279-.614-.613-2.278Zm-9.055-5.068-1.549.417,1.549.417.417,1.549.417-1.549,1.55-.417-1.55-.417-.417-1.55Zm18.234,1.166-2.716.731,2.716.731.731,2.716.731-2.716,2.716-.731-2.716-.731-.731-2.716Zm-9.009-6.5-1.55.417,1.55.417.417,1.549.417-1.549,1.55-.417-1.55-.417-.417-1.55Z" transform="translate(-78.198 -155.739)" fill="url(#linear-gradient)"/>
    </clipPath>
    <clipPath id="clip-foxconniai_logo">
      <rect width="374" height="55"/>
    </clipPath>
  </defs>
  <g id="foxconniai_logo" clip-path="url(#clip-foxconniai_logo)">
    <g id="Group_4115" data-name="Group 4115" transform="translate(8 4.234)">
      <g id="Group_1836" data-name="Group 1836" transform="translate(0 0)">
        <g id="Group_1833" data-name="Group 1833" transform="translate(0 0)">
          <g id="Group_1832" data-name="Group 1832" clip-path="url(#clip-path)">
            <rect id="Rectangle_2414" data-name="Rectangle 2414" width="40.802" height="46.267" transform="translate(0 0)" fill="url(#linear-gradient)"/>
          </g>
        </g>
        <g id="Sjsp54" transform="translate(56.385 10.776)">
          <g id="Group_1834" data-name="Group 1834">
            <path id="Path_3507" data-name="Path 3507" d="M710.625,206.314h-8.244c-.023-.52-.057-.936-.057-1.352q0-8.224,0-16.448c0-1.7-.138-1.824-1.839-1.826q-5.423,0-10.845,0c-1.562,0-1.718.16-1.719,1.7q-.005,8.284,0,16.568v1.224h-8.139V181.473c.489-.03.992-.088,1.5-.088q10.012-.009,20.023,0a8.892,8.892,0,0,1,9.04,6.661,5.06,5.06,0,0,0,.292.626Z" transform="translate(-481.706 -181.31)" fill="#fff" fill-rule="evenodd"/>
            <path id="Path_3508" data-name="Path 3508" d="M211.506,188.924s-.136-3.062,1.6-4.823a6.885,6.885,0,0,1,5.337-2.219c6.348-.1,12.7-.038,19.141-.038v5.106h-1.3q-7.325,0-14.651,0c-1.465,0-1.8.346-1.817,1.831-.008.794-.007,1.588.011,2.382.028,1.254.387,1.626,1.647,1.63,4.407.012,8.814.006,13.221.007h1.638v3.947h-1.3q-6.015,0-12.03,0c-2.527,0-3.184.661-3.186,3.164,0,2.14,0,4.28,0,6.63l-8.307.26Z" transform="translate(-211.503 -181.566)" fill="#fff" fill-rule="evenodd"/>
            <path id="Path_3509" data-name="Path 3509" d="M298.659,181.787l6.438,0c4.933,0,8.265,2.877,8.574,7.817a66.439,66.439,0,0,1-.191,10.1,7.751,7.751,0,0,1-7.573,6.775q-7.39.093-14.781,0a8.574,8.574,0,0,1-8.373-8.052,63.122,63.122,0,0,1,.084-8.927,8.614,8.614,0,0,1,8.552-7.707C293.811,181.76,296.235,181.785,298.659,181.787ZM291.077,194.1c0,1.905.049,3.812-.018,5.715-.041,1.167.481,1.553,1.556,1.548q5.536-.023,11.073,0c1.089.005,1.6-.48,1.6-1.577q-.011-5.774.022-11.549c.007-.928-.441-1.3-1.3-1.306q-5.834-.008-11.668,0a1.137,1.137,0,0,0-1.279,1.331C291.1,190.21,291.074,192.155,291.077,194.1Z" transform="translate(-252.547 -181.538)" fill="#fff" fill-rule="evenodd"/>
            <path id="Path_3510" data-name="Path 3510" d="M529.151,181.8c2.382,0,4.765-.016,7.148,0a7.748,7.748,0,0,1,7.8,7.286,100.264,100.264,0,0,1-.006,10.226,7.817,7.817,0,0,1-7.472,7.161c-5,.087-10.014.2-15.005-.055a8.533,8.533,0,0,1-8.373-8.657c-.052-2.381-.031-4.765,0-7.147a8.791,8.791,0,0,1,8.88-8.811C524.465,181.785,526.808,181.8,529.151,181.8Zm-.444,5.133q-2.861,0-5.722,0c-.947,0-1.5.422-1.5,1.43q0,5.782,0,11.563a1.253,1.253,0,0,0,1.37,1.431q5.782.025,11.563,0a1.122,1.122,0,0,0,1.275-1.23c.049-3.848.126-7.7.161-11.545.011-1.213-.437-1.632-1.662-1.645C532.363,186.919,530.535,186.934,528.707,186.932Z" transform="translate(-385.598 -181.548)" fill="#fff" fill-rule="evenodd"/>
            <path id="Path_3511" data-name="Path 3511" d="M596.826,181.855c.423-.024.771-.06,1.121-.06q10.547,0,21.093,0a8.583,8.583,0,0,1,8.552,8.54q.022,7.388.008,14.777c0,.427-.038.854-.061,1.34h-8.3v-1.885q0-7.983,0-15.968c0-1.458-.205-1.667-1.642-1.669-3.694,0-7.388.026-11.082-.013-1.133-.012-1.544.417-1.537,1.548.033,5.641.012,11.282.011,16.922v1.031h-8.159Z" transform="translate(-433.843 -181.549)" fill="#fff" fill-rule="evenodd"/>
            <path id="Path_3512" data-name="Path 3512" d="M362.579,206.178l3.742-4.423c1.767-2.087,3.559-4.153,5.291-6.269a2.542,2.542,0,0,0-.053-3.65c-2.716-3.152-5.459-6.279-8.189-9.418-.257-.3-.491-.613-.9-1.132h2.126a48.413,48.413,0,0,0,5.241-.041,3.892,3.892,0,0,1,3.847,1.912,27.324,27.324,0,0,0,2.229,2.622,2.725,2.725,0,0,0,4.273-.025c.947-1.011,1.842-2.075,2.7-3.16a3.011,3.011,0,0,1,2.708-1.337c2.608.111,5.223.033,8.08.033-1.315,1.536-2.479,2.909-3.659,4.267-1.742,2-3.5,4-5.247,5.994a2.891,2.891,0,0,0-.047,4.249c2.917,3.392,5.836,6.782,8.924,10.372-3.222,0-6.215.008-9.207-.015a1.087,1.087,0,0,1-.689-.357q-1.721-1.888-3.4-3.817a2.867,2.867,0,0,0-4.465-.13c-1.079,1.16-2.036,2.436-3.142,3.567a2.566,2.566,0,0,1-1.6.725C368.383,206.217,365.617,206.178,362.579,206.178Z" transform="translate(-298.612 -181.215)" fill="#fff" fill-rule="evenodd"/>
            <path id="Path_3513" data-name="Path 3513" d="M468.579,201.355v5.07c-.37.028-.712.078-1.055.078q-8.343,0-16.685-.014a8.047,8.047,0,0,1-8.1-8.072c0-2.94-.023-5.88.006-8.82a8.16,8.16,0,0,1,7.57-7.776c5.878-.087,11.759-.042,17.639-.049a5.463,5.463,0,0,1,.617.074v5.074H467.3q-7.331,0-14.66,0c-1.522,0-1.714.2-1.715,1.705,0,3.735.023,7.469-.015,11.2-.011,1.14.457,1.548,1.563,1.541,4.886-.028,9.773-.013,14.66-.013Z" transform="translate(-344.926 -181.533)" fill="#fff" fill-rule="evenodd"/>
          </g>
        </g>
        <g id="Group_1835" data-name="Group 1835" transform="translate(313.993 9.944)">
          <path id="Path_3515" data-name="Path 3515" d="M847.316,184.3l.351-.719A3.941,3.941,0,0,0,847.316,184.3Z" transform="translate(-835.989 -181.747)" fill="#fff"/>
          <path id="Path_3516" data-name="Path 3516" d="M845.548,181.629c-.051-.114-.106-.228-.165-.338a3.89,3.89,0,0,0-3.426-2.043h-6.429a3.91,3.91,0,0,0-3.312,1.831l-.351.719v0l-11.327,23.183h10.557l1.4-3.663.034-.1a.846.846,0,0,1,.635-.491h10.718a.845.845,0,0,1,.779.516.575.575,0,0,1,.029.076l1.443,3.659,10.255.086Zm-3.124,15.007H834.85a1.221,1.221,0,0,1-1.089-1.264,1.186,1.186,0,0,1,.025-.219l.15-.375,3.486-8.827.144-.35a1.215,1.215,0,0,1,2.06-.107l.219.545,3.455,8.65c.006,0,.006,0,0,.006l.219.552v.006a.763.763,0,0,1,.019.206A1.232,1.232,0,0,1,842.424,196.636Z" transform="translate(-820.537 -179.248)" fill="#fff"/>
        </g>
        <path id="Path_3517" data-name="Path 3517" d="M798.438,205v14.179h-8.282V205a1.158,1.158,0,0,1,1.159-1.159h5.964A1.158,1.158,0,0,1,798.438,205Z" transform="translate(-489.013 -183.493)" fill="#fff"/>
        <path id="Path_3518" data-name="Path 3518" d="M923.121,180.66v24.472h-8.282V180.66A1.158,1.158,0,0,1,916,179.5h5.965A1.158,1.158,0,0,1,923.121,180.66Z" transform="translate(-560.958 -169.45)" fill="#fff"/>
        <path id="Path_3514" data-name="Path 3514" d="M798.352,182.2a4.379,4.379,0,1,1-8.492-1.507v-.005a4.38,4.38,0,0,1,8.492,1.512Z" transform="translate(-488.689 -168.48)" fill="#ad0412"/>
      </g>
    </g>
  </g>
</svg>
